<svg xmlns="http://www.w3.org/2000/svg" xmlns:xlink="http://www.w3.org/1999/xlink" width="1080" zoomAndPan="magnify" viewBox="0 0 810 809.999993" height="1080" preserveAspectRatio="xMidYMid meet" version="1.0"><defs><clipPath id="004e8b3ec3"><path d="M 30 0 L 806.25 0 L 806.25 614 L 30 614 Z M 30 0 " clip-rule="nonzero"/></clipPath><clipPath id="7f5fe0d050"><path d="M 559.765625 495.867188 L 577.242188 495.867188 L 577.242188 554.691406 L 559.765625 554.691406 Z M 559.765625 495.867188 " clip-rule="nonzero"/></clipPath></defs><g clip-path="url(#004e8b3ec3)"><path fill="#9c9e9f" d="M 315.691406 596.980469 C 299.605469 586.210938 287.757812 572.144531 279.957031 554.628906 C 271.3125 535.339844 266.707031 513.414062 265.976562 488.652344 C 265.277344 463.902344 267.40625 437.890625 272.371094 410.660156 C 280.128906 365.386719 292.339844 326.113281 308.628906 292.707031 C 325.050781 259.269531 345.742188 233.285156 370.507812 214.886719 C 395.265625 196.316406 424.097656 186.949219 457 186.753906 C 489.515625 186.753906 515.34375 195.078125 534.625 211.53125 C 553.742188 227.96875 565.058594 251.847656 568.398438 283.332031 L 806.078125 283.332031 C 806.472656 236.292969 799.03125 195.257812 783.984375 159.886719 C 769.132812 124.5 747.542969 94.992188 719.777344 71.285156 C 691.84375 47.578125 658.765625 29.71875 620.585938 17.871094 C 582.402344 6.027344 540.296875 0 494.109375 0 C 432.039062 0.179688 374.765625 10.269531 322.042969 30.066406 C 269.339844 49.691406 222.320312 77.824219 181.269531 114.261719 C 140.082031 150.695312 105.925781 194.191406 78.882812 244.421875 C 0.046875 389.828125 1.40625 606.210938 209.058594 613.359375 C 245.769531 614.617188 281.507812 608.460938 315.691406 596.980469 " fill-opacity="1" fill-rule="nonzero"/></g><path fill="#97bf29" d="M 798.328125 363.96875 L 380.769531 363.96875 L 529.535156 489.378906 C 297.957031 714.628906 77.328125 653.492188 16.617188 554.796875 C 22.09375 597.050781 33.773438 633.671875 51.65625 664.976562 C 69.335938 696.277344 91.96875 722.273438 119.398438 742.785156 C 146.777344 763.476562 177.90625 778.875 212.582031 789.121094 C 247.074219 799.203125 284.027344 804.335938 323.304688 804.335938 C 446.191406 803.792969 565.808594 744.542969 652.132812 658.277344 L 726.097656 810.550781 Z M 798.328125 363.96875 " fill-opacity="1" fill-rule="nonzero"/><g clip-path="url(#7f5fe0d050)"><path fill="#97bf29" d="M 559.765625 495.867188 L 577.242188 495.867188 L 577.242188 554.71875 L 559.765625 554.71875 Z M 559.765625 495.867188 " fill-opacity="1" fill-rule="nonzero"/></g></svg>
